<svg width="125" height="125" viewBox="0 0 125 125" fill="none" xmlns="http://www.w3.org/2000/svg">
<g id="Layer_1" clip-path="url(#clip0_240_13)">
<g id="SVGRepo_iconCarrier">
<path id="Vector" d="M62.5 125C97.0178 125 125 97.0178 125 62.5C125 27.9822 97.0178 0 62.5 0C27.9822 0 0 27.9822 0 62.5C0 97.0178 27.9822 125 62.5 125Z" fill="#A0EBEF"/>
<path id="Vector_2" d="M124.955 64.7698L101.852 41.6667L62.991 39.6326V100.168L84.0188 121.196C107.26 112.673 124.027 90.739 124.955 64.7698Z" fill="#71E2EF"/>
<path id="Vector_3" d="M6.75415 90.7859C17.0767 111.089 38.1628 125 62.5 125C86.8367 125 107.923 111.089 118.246 90.7861L108.072 80.6118C102.947 75.4875 94.6397 75.4875 89.5156 80.6118L62.4995 107.628L35.4836 80.6121C30.3594 75.4878 22.0518 75.4878 16.9277 80.6121L6.75415 90.7859Z" fill="#FF7F4F"/>
<g id="Group">
<path id="Vector_4" d="M35.4836 80.6121C32.9111 78.0396 29.5361 76.7593 26.1643 76.7698V113.351C36.156 120.504 48.3406 124.787 61.5178 124.99V106.646L35.4836 80.6121Z" fill="#E06948"/>
<path id="Vector_5" d="M118.246 90.7861L108.072 80.6118C105.413 77.9536 101.898 76.678 98.415 76.7776V113.645C106.751 107.78 113.594 99.9355 118.246 90.7861Z" fill="#E06948"/>
</g>
<path id="Vector_6" d="M67.1296 34.7222H60.1853V83.3333H67.1296V34.7222Z" fill="#EAA22F"/>
<path id="Vector_7" d="M67.1292 34.7222H63.3418V83.3333H67.1292V34.7222Z" fill="#FF5419"/>
<path id="Vector_8" d="M62.5 125C79.2783 125 94.5115 118.387 105.738 107.628L71.7778 73.6675C66.6536 68.5432 58.3459 68.5432 53.2219 73.6675L19.262 107.627C30.4885 118.387 45.7219 125 62.5 125Z" fill="#D35933"/>
<path id="Vector_9" d="M71.7778 73.6675C69.4302 71.3198 66.4138 70.0508 63.3418 69.8547V124.99C79.7871 124.772 94.6995 118.207 105.738 107.628L71.7778 73.6675Z" fill="#B54324"/>
<path id="Vector_10" d="M60.1848 20.8333L101.851 41.6667L60.1848 55.9062V20.8333Z" fill="#386895"/>
<path id="Vector_11" d="M60.1848 41.5964V55.9063L101.851 41.6668L101.711 41.5964H60.1848Z" fill="#273B7A"/>
</g>
</g>
<defs>
<clipPath id="clip0_240_13">
<rect width="125" height="125" fill="white"/>
</clipPath>
</defs>
</svg>
