<svg width="125" height="125" viewBox="0 0 125 125" fill="none" xmlns="http://www.w3.org/2000/svg">
<g id="Layer_1" clip-path="url(#clip0_240_27)">
<g id="SVGRepo_iconCarrier">
<path id="Vector" d="M62.5 125C97.0178 125 125 97.0178 125 62.5C125 27.9822 97.0178 0 62.5 0C27.9822 0 0 27.9822 0 62.5C0 97.0178 27.9822 125 62.5 125Z" fill="#273B7A"/>
<path id="Vector_2" d="M63.6826 124.985C95.3938 124.396 121.329 100.192 124.64 69.219L103.758 48.3372L103.243 49.1196L88.9348 34.8108L83.6797 33.6138L67.0774 16.6951L65.9343 24.6741L44.8994 29.4675L28.269 46.0979L27.2168 50.085L22.4617 56.9529L29.6011 64.0923L12.5493 73.8528L63.6826 124.985Z" fill="#121149"/>
<path id="Vector_3" d="M100.8 62.5C100.8 41.4751 83.77 24.3557 62.7805 24.2041V26.7327C82.3772 26.885 98.2742 42.8682 98.2742 62.5C98.2742 82.1318 82.3774 98.1152 62.7808 98.2673V100.796C83.7703 100.644 100.8 83.5249 100.8 62.5Z" fill="#38C6D9"/>
<path id="Vector_4" d="M62.5 98.2744C42.7739 98.2744 26.7256 82.2261 26.7256 62.5C26.7256 42.7739 42.7739 26.7256 62.5 26.7256C62.5942 26.7256 62.6868 26.7319 62.7808 26.7327V24.2041C62.687 24.2034 62.594 24.2002 62.5 24.2002C41.3813 24.2002 24.2004 41.3811 24.2004 62.4998C24.2004 83.6184 41.3813 100.8 62.5 100.8C62.5937 100.8 62.6868 100.797 62.7808 100.796V98.2671C62.6868 98.2681 62.5942 98.2744 62.5 98.2744Z" fill="#71E2EF"/>
<path id="Vector_5" d="M48.8376 42.6587C48.8376 35.1138 54.9546 28.9971 62.5 28.9971C70.0454 28.9971 76.1624 35.1138 76.1624 42.6592L48.8376 42.6587Z" fill="#FF7F4F"/>
<path id="Vector_6" d="M62.7104 29.0022V42.6587H76.1624C76.1624 35.1838 70.1587 29.115 62.7104 29.0022Z" fill="#D35933"/>
<path id="Vector_7" d="M62.7188 27.2105C66.1175 27.2105 68.8728 24.4552 68.8728 21.0564C68.8728 17.6576 66.1175 14.9023 62.7188 14.9023C59.32 14.9023 56.5647 17.6576 56.5647 21.0564C56.5647 24.4552 59.32 27.2105 62.7188 27.2105Z" fill="#FF7F4F"/>
<path id="Vector_8" d="M62.7205 14.9041C62.717 14.9041 62.7136 14.9045 62.7104 14.9045V27.2122C62.7139 27.2122 62.7173 27.2126 62.7205 27.2126C66.1194 27.2126 68.8745 24.4575 68.8745 21.0586C68.8745 17.6597 66.1196 14.9041 62.7205 14.9041Z" fill="#D35933"/>
<path id="Vector_9" d="M48.8376 105.045C48.8376 97.5 54.9546 91.3833 62.5 91.3833C70.0454 91.3833 76.1624 97.5 76.1624 105.045L48.8376 105.045Z" fill="#FF7F4F"/>
<path id="Vector_10" d="M62.7104 91.3884V105.045H76.1624C76.1624 97.5708 70.1587 91.5017 62.7104 91.3884Z" fill="#D35933"/>
<path id="Vector_11" d="M62.7188 89.5969C66.1175 89.5969 68.8728 86.8417 68.8728 83.4429C68.8728 80.0441 66.1175 77.2888 62.7188 77.2888C59.32 77.2888 56.5647 80.0441 56.5647 83.4429C56.5647 86.8417 59.32 89.5969 62.7188 89.5969Z" fill="#FF7F4F"/>
<path id="Vector_12" d="M62.7205 77.2908C62.717 77.2908 62.7136 77.2913 62.7104 77.2913V89.5989C62.7139 89.5989 62.7173 89.5994 62.7205 89.5994C66.1194 89.5994 68.8745 86.8442 68.8745 83.4453C68.8745 80.0459 66.1196 77.2908 62.7205 77.2908Z" fill="#D35933"/>
<path id="Vector_13" d="M12.5493 73.8518C12.5493 66.3069 18.6663 60.1902 26.2117 60.1902C33.7571 60.1902 39.874 66.3069 39.874 73.8523L12.5493 73.8518Z" fill="#FFC61B"/>
<path id="Vector_14" d="M26.4221 60.1953V73.8518H39.874C39.8743 66.3774 33.8699 60.3086 26.4221 60.1953Z" fill="#EAA22F"/>
<path id="Vector_15" d="M26.4321 58.4058C29.8309 58.4058 32.5862 55.6505 32.5862 52.2517C32.5862 48.8529 29.8309 46.0977 26.4321 46.0977C23.0333 46.0977 20.2781 48.8529 20.2781 52.2517C20.2781 55.6505 23.0333 58.4058 26.4321 58.4058Z" fill="#FFC61B"/>
<path id="Vector_16" d="M26.4321 46.0972C26.4287 46.0972 26.4253 46.0977 26.4221 46.0977V58.4053C26.4255 58.4053 26.429 58.4058 26.4321 58.4058C29.8311 58.4058 32.5862 55.6506 32.5862 52.2517C32.5862 48.8528 29.8308 46.0977 26.4321 46.0972Z" fill="#EAA22F"/>
<path id="Vector_17" d="M85.1262 73.8518C85.1262 66.3069 91.2432 60.1902 98.7886 60.1902C106.334 60.1902 112.451 66.3069 112.451 73.8523L85.1262 73.8518Z" fill="#FFC61B"/>
<path id="Vector_18" d="M98.9988 60.1953V73.8518H112.451C112.451 66.3774 106.447 60.3086 98.9988 60.1953Z" fill="#EAA22F"/>
<path id="Vector_19" d="M99.011 58.4058C102.41 58.4058 105.165 55.6505 105.165 52.2517C105.165 48.8529 102.41 46.0977 99.011 46.0977C95.6122 46.0977 92.8569 48.8529 92.8569 52.2517C92.8569 55.6505 95.6122 58.4058 99.011 58.4058Z" fill="#FFC61B"/>
<path id="Vector_20" d="M99.0088 46.0972C99.0054 46.0972 99.002 46.0977 98.9988 46.0977V58.4053C99.0022 58.4053 99.0056 58.4058 99.0088 58.4058C102.408 58.4058 105.163 55.6506 105.163 52.2517C105.163 48.8528 102.408 46.0977 99.0088 46.0972Z" fill="#EAA22F"/>
</g>
</g>
<defs>
<clipPath id="clip0_240_27">
<rect width="125" height="125" fill="white"/>
</clipPath>
</defs>
</svg>
