<svg width="125" height="125" viewBox="0 0 125 125" fill="none" xmlns="http://www.w3.org/2000/svg">
<g id="Layer_1" clip-path="url(#clip0_240_49)">
<g id="SVGRepo_iconCarrier">
<path id="Vector" d="M62.5 125C97.0178 125 125 97.0178 125 62.5C125 27.9822 97.0178 0 62.5 0C27.9822 0 0 27.9822 0 62.5C0 97.0178 27.9822 125 62.5 125Z" fill="#273B7A"/>
<path id="Vector_2" d="M83.7087 121.306C103.104 114.31 118.042 97.9932 123.12 77.7605L84.897 39.5374L83.8064 40.7705L78.6321 35.4897L73.5054 40.5752L72.4856 39.4414L56.6123 43.3345L52.2874 47.5305L46.0471 51.6589L36.4763 42.0874L32.7234 46.8926L40.8967 55.0659L26.7957 64.3938L83.7087 121.306Z" fill="#121149"/>
<path id="Vector_3" d="M29.282 60.9885H41.7495L43.0774 62.3164C45.5063 64.7454 48.8 66.1094 52.2349 66.1094H75.0361C76.4502 66.1094 77.5967 64.9629 77.5967 63.5488C77.5967 62.1348 76.4502 60.9883 75.0361 60.9883H68.053V60.3245H85.2781C86.6863 60.3245 87.8386 59.1721 87.8386 57.7639C87.8386 56.3557 86.6868 55.2034 85.2781 55.2034H68.053V54.3738H89.0803C90.4885 54.3738 91.6409 53.2214 91.6409 51.8132C91.6409 50.405 90.489 49.2527 89.0803 49.2527H68.053V48.4231H85.2781C86.6863 48.4231 87.8386 47.2708 87.8386 45.8625C87.8386 44.4543 86.6868 43.302 85.2781 43.302H70.5635C69.946 44.4417 68.7395 45.2178 67.3547 45.2178H62.2339C61.2356 45.2178 60.4233 46.0295 60.4233 47.0283V48.4248C60.4233 52.304 57.2676 55.4597 53.3889 55.4597H49.0952V53.2871H53.3889C56.0698 53.2871 58.2512 51.1057 58.2512 48.4248V47.0283C58.2512 44.8323 60.0378 43.0457 62.2344 43.0457H67.3552C68.168 43.0457 68.8296 42.3845 68.8296 41.5713C68.8296 40.7581 68.1685 40.0969 67.3552 40.0969H52.2356C49.0664 40.0969 46.0869 41.3308 43.8459 43.5718L42.2004 45.2178H29.2825L29.282 60.9885Z" fill="#FFEDB5"/>
<path id="Vector_4" d="M89.0801 54.3745C89.7632 54.3745 90.3848 54.1018 90.8452 53.6619H58.0698C56.825 54.7764 55.1868 55.4607 53.3879 55.4607H49.0942V53.6614H29.282V60.9883H41.7495L43.0774 62.3162C45.5063 64.7451 48.8 66.1091 52.2349 66.1091H75.0361C76.4502 66.1091 77.5967 64.9627 77.5967 63.5486C77.5967 62.1345 76.4502 60.988 75.0361 60.988H68.053V60.3242H85.2781C86.6863 60.3242 87.8386 59.1719 87.8386 57.7637C87.8386 56.3555 86.6868 55.2031 85.2781 55.2031H68.053V54.3735H89.0798V54.3745H89.0801Z" fill="#FEE187"/>
<path id="Vector_5" d="M64.6628 59.4861V75.5286C64.6628 78.7874 65.9575 81.9129 68.2622 84.2171L69.9658 85.9204V94.7966H86.2961V86.3863L87.6711 85.0112C90.1863 82.4961 91.5991 79.0852 91.5991 75.5286V52.0286C91.5991 50.5767 90.4805 49.3106 89.0293 49.2671C87.5276 49.2222 86.2966 50.4258 86.2966 51.9173V61.3987H85.6094V41.4109C85.6094 40.065 84.6484 38.8604 83.3145 38.6836C81.6992 38.4697 80.3069 39.7359 80.3069 41.3115V61.3987H79.448V37.4741C79.448 36.1282 78.4875 34.9236 77.1531 34.7468C75.5378 34.533 74.145 35.7991 74.145 37.3748V61.3987H73.2861V41.4109C73.2861 40.065 72.3257 38.8604 70.9912 38.6836C69.376 38.4697 67.9832 39.7359 67.9832 41.3115V56.5488C69.1638 57.1883 69.967 58.4378 69.967 59.8716V70.917H68.8425V59.4856C68.8425 58.3321 67.9072 57.3965 66.7534 57.3965C65.5984 57.397 64.6628 58.3325 64.6628 59.4861Z" fill="#EAA22F"/>
<path id="Vector_6" d="M89.0291 49.2676C87.5273 49.2227 86.2964 50.4263 86.2964 51.9177V61.3992H85.6091V41.4111C85.6091 40.0652 84.6482 38.8606 83.3142 38.6838C81.699 38.47 80.3066 39.7361 80.3066 41.3118V61.3989H79.4478V37.4744C79.4478 36.1284 78.4873 34.9238 77.1528 34.7471C77.085 34.7383 77.0181 34.7354 76.9512 34.7314V94.7966H86.2971V86.3862L87.6721 85.0112C90.1873 82.4961 91.6001 79.0852 91.6001 75.5286V52.0286C91.5989 50.5769 90.4802 49.311 89.0291 49.2676Z" fill="#E09112"/>
<path id="Vector_7" d="M89.2256 90.4883H66.9192V100.168H89.2256V90.4883Z" fill="#D35933"/>
<path id="Vector_8" d="M89.2256 90.4883H76.9487V100.168H89.2256V90.4883Z" fill="#B54324"/>
<path id="Vector_9" d="M36.4773 42.0876H26.7971V64.394H36.4773V42.0876Z" fill="#D35933"/>
<path id="Vector_10" d="M36.4773 53.6616H26.7971V64.394H36.4773V53.6616Z" fill="#B54324"/>
</g>
</g>
<defs>
<clipPath id="clip0_240_49">
<rect width="125" height="125" fill="white"/>
</clipPath>
</defs>
</svg>
